<svg xmlns="http://www.w3.org/2000/svg" xmlns:xlink="http://www.w3.org/1999/xlink" width="336" zoomAndPan="magnify" viewBox="0 0 252 143.999998" height="192" preserveAspectRatio="xMidYMid meet" version="1.0"><defs><clipPath id="f51fbe35b7"><path d="M 67.355469 15.042969 L 184 15.042969 L 184 129.042969 L 67.355469 129.042969 Z M 67.355469 15.042969 " clip-rule="nonzero"/></clipPath></defs><path fill="#263151" d="M 98.332031 29.113281 C 97.9375 28.828125 97.503906 28.660156 97.023438 28.613281 C 96.542969 28.566406 96.082031 28.644531 95.644531 28.84375 C 95.230469 29.023438 94.804688 29.207031 94.363281 29.402344 C 92.605469 30.175781 90.785156 30.976562 89.113281 32.085938 C 87.191406 33.355469 85.53125 34.953125 84.054688 36.363281 C 83.714844 36.671875 83.480469 37.039062 83.347656 37.476562 C 83.214844 37.910156 83.203125 38.351562 83.308594 38.792969 C 83.429688 39.269531 83.660156 39.683594 84 40.035156 C 84.335938 40.390625 84.742188 40.636719 85.207031 40.777344 C 85.652344 40.910156 86.101562 40.917969 86.550781 40.804688 C 87.003906 40.695312 87.394531 40.472656 87.722656 40.148438 L 87.832031 40.042969 C 89.339844 38.613281 90.761719 37.246094 92.425781 36.234375 C 93.808594 35.429688 95.238281 34.722656 96.714844 34.109375 C 97.15625 33.914062 97.597656 33.722656 98.039062 33.523438 C 98.441406 33.355469 98.773438 33.097656 99.035156 32.746094 C 99.292969 32.394531 99.445312 32 99.492188 31.5625 C 99.523438 31.082031 99.4375 30.621094 99.230469 30.183594 C 99.023438 29.75 98.722656 29.390625 98.332031 29.113281 Z M 98.332031 29.113281 " fill-opacity="1" fill-rule="nonzero"/><path fill="#263151" d="M 76.179688 36.367188 C 76.609375 36.433594 77.023438 36.378906 77.425781 36.210938 C 77.828125 36.042969 78.15625 35.785156 78.414062 35.429688 C 80.910156 32.234375 83.851562 29.527344 87.242188 27.3125 C 90.632812 25.09375 94.292969 23.484375 98.214844 22.484375 C 98.65625 22.382812 99.042969 22.171875 99.371094 21.855469 C 99.699219 21.539062 99.925781 21.164062 100.046875 20.722656 C 100.175781 20.25 100.175781 19.773438 100.054688 19.296875 C 99.929688 18.824219 99.699219 18.410156 99.359375 18.054688 C 99.035156 17.726562 98.652344 17.5 98.207031 17.375 C 97.757812 17.253906 97.3125 17.253906 96.867188 17.375 C 92.441406 18.515625 88.3125 20.332031 84.480469 22.824219 C 80.648438 25.316406 77.3125 28.355469 74.46875 31.941406 C 74.167969 32.324219 73.980469 32.753906 73.910156 33.234375 C 73.839844 33.71875 73.894531 34.183594 74.078125 34.636719 C 74.253906 35.089844 74.527344 35.472656 74.902344 35.78125 C 75.273438 36.085938 75.699219 36.285156 76.179688 36.367188 Z M 76.179688 36.367188 " fill-opacity="1" fill-rule="nonzero"/><g clip-path="url(#f51fbe35b7)"><path fill="#263151" d="M 178.460938 60.273438 C 178.734375 58.988281 179.089844 57.6875 179.429688 56.425781 L 179.5 56.15625 C 180.984375 55.761719 182.175781 54.9375 183.070312 53.6875 C 184.160156 52.191406 184.300781 50.25 183.453125 48.46875 C 183.382812 48.261719 183.289062 48.066406 183.167969 47.882812 C 183.003906 47.640625 182.828125 47.410156 182.628906 47.195312 C 182.085938 46.546875 181.429688 46.050781 180.660156 45.703125 C 180.449219 45.609375 180.234375 45.546875 180.007812 45.511719 C 179.113281 45.234375 178.210938 45.199219 177.296875 45.40625 C 176.382812 45.613281 175.582031 46.035156 174.890625 46.671875 C 174.257812 47.261719 173.78125 47.957031 173.457031 48.761719 C 173.132812 49.5625 172.992188 50.398438 173.035156 51.261719 C 173.089844 52.574219 173.558594 53.714844 174.445312 54.683594 L 174.375 54.9375 C 174.175781 55.675781 173.972656 56.433594 173.78125 57.195312 L 173.589844 57.15625 C 172.710938 56.992188 171.839844 57.023438 170.976562 57.253906 C 169.289062 53.476562 166.644531 49.820312 163.121094 46.382812 C 163.042969 46.296875 162.960938 46.21875 162.871094 46.144531 C 161.199219 44.542969 159.425781 43.0625 157.558594 41.695312 C 149.390625 35.714844 139.359375 32.253906 128.453125 31.644531 C 128.46875 31.066406 128.480469 30.484375 128.480469 29.894531 C 128.816406 29.769531 129.144531 29.621094 129.460938 29.449219 C 132.902344 27.59375 134.183594 22.945312 132.257812 19.296875 C 131.738281 18.332031 131.046875 17.515625 130.175781 16.851562 C 129.308594 16.1875 128.339844 15.734375 127.277344 15.488281 C 126.328125 15.261719 125.375 15.246094 124.421875 15.445312 C 123.46875 15.640625 122.597656 16.035156 121.820312 16.617188 L 121.746094 16.675781 C 121.039062 17.1875 120.433594 17.796875 119.929688 18.511719 C 119.429688 19.226562 119.054688 20 118.8125 20.839844 C 118.566406 21.679688 118.46875 22.535156 118.507812 23.410156 C 118.550781 24.28125 118.734375 25.125 119.058594 25.9375 C 119.429688 26.871094 119.980469 27.691406 120.703125 28.390625 C 121.429688 29.089844 122.265625 29.605469 123.210938 29.945312 C 123.222656 30.511719 123.214844 31.082031 123.195312 31.65625 C 112.332031 32.28125 102.332031 35.742188 94.199219 41.703125 C 92.335938 43.066406 90.566406 44.546875 88.894531 46.144531 C 88.796875 46.21875 88.703125 46.300781 88.617188 46.390625 C 85.09375 49.820312 82.457031 53.46875 80.785156 57.242188 C 80.5 57.167969 80.214844 57.117188 79.921875 57.085938 C 79.265625 57.015625 78.613281 57.050781 77.96875 57.195312 C 77.777344 56.4375 77.574219 55.683594 77.375 54.945312 L 77.304688 54.683594 C 78.1875 53.734375 78.65625 52.613281 78.710938 51.316406 C 78.753906 50.445312 78.617188 49.605469 78.296875 48.796875 C 77.976562 47.988281 77.5 47.285156 76.871094 46.683594 C 76.183594 46.035156 75.382812 45.609375 74.464844 45.398438 C 73.542969 45.1875 72.636719 45.226562 71.738281 45.511719 C 71.515625 45.546875 71.300781 45.609375 71.09375 45.699219 C 70.3125 46.046875 69.648438 46.546875 69.097656 47.203125 C 68.90625 47.414062 68.730469 47.640625 68.574219 47.875 C 68.453125 48.058594 68.355469 48.257812 68.285156 48.464844 C 67.4375 50.246094 67.570312 52.191406 68.664062 53.683594 C 69.5625 54.9375 70.753906 55.765625 72.242188 56.15625 L 72.316406 56.425781 C 72.660156 57.6875 73.011719 58.992188 73.28125 60.277344 C 73.1875 60.390625 73.09375 60.503906 73.007812 60.617188 C 69.449219 65.21875 68.542969 71.332031 68.414062 75.652344 C 68.3125 78.929688 68.695312 82.148438 69.5625 85.308594 C 70.511719 88.757812 71.734375 92.582031 74.207031 94.320312 C 74.992188 94.878906 75.859375 95.257812 76.804688 95.457031 C 77.746094 95.660156 78.691406 95.667969 79.636719 95.476562 C 80.898438 100.238281 83.394531 105.210938 86.925781 109.941406 C 89.546875 113.484375 92.601562 116.601562 96.09375 119.285156 C 99.585938 121.96875 103.375 124.121094 107.46875 125.742188 C 112.964844 127.882812 119.121094 129.003906 125.785156 129.039062 L 125.976562 129.039062 C 136.933594 128.980469 146.933594 125.816406 154.890625 119.898438 C 158.078125 117.535156 160.929688 114.8125 163.445312 111.738281 C 165.957031 108.664062 168.0625 105.324219 169.75 101.726562 C 170.707031 99.714844 171.488281 97.636719 172.09375 95.492188 C 173.171875 95.703125 174.246094 95.671875 175.316406 95.40625 C 178.902344 94.382812 180.21875 90.882812 181.277344 88.078125 L 181.363281 87.84375 C 182.535156 84.695312 183.1875 81.441406 183.320312 78.082031 C 183.589844 71.894531 182.289062 66.160156 179.652344 61.921875 C 179.292969 61.347656 178.894531 60.796875 178.460938 60.273438 Z M 178.460938 60.273438 " fill-opacity="1" fill-rule="nonzero"/></g><path fill="#263151" d="M 157.375 29.402344 C 156.945312 29.214844 156.519531 29.027344 156.09375 28.835938 C 155.761719 28.683594 155.410156 28.605469 155.046875 28.59375 C 154.679688 28.585938 154.328125 28.648438 153.984375 28.78125 C 153.644531 28.914062 153.34375 29.109375 153.082031 29.363281 C 152.816406 29.617188 152.613281 29.914062 152.46875 30.25 C 152.328125 30.550781 152.25 30.863281 152.234375 31.195312 C 152.21875 31.527344 152.269531 31.847656 152.386719 32.15625 C 152.5 32.464844 152.671875 32.742188 152.902344 32.980469 C 153.128906 33.21875 153.394531 33.402344 153.699219 33.535156 L 155.03125 34.125 C 156.5 34.730469 157.925781 35.433594 159.300781 36.230469 C 160.960938 37.246094 162.386719 38.609375 163.902344 40.050781 L 164.003906 40.148438 C 164.503906 40.636719 165.105469 40.882812 165.804688 40.890625 C 166.574219 40.882812 167.222656 40.59375 167.742188 40.023438 C 167.988281 39.78125 168.175781 39.5 168.304688 39.179688 C 168.433594 38.859375 168.496094 38.523438 168.492188 38.179688 C 168.484375 37.835938 168.410156 37.503906 168.269531 37.1875 C 168.128906 36.875 167.929688 36.597656 167.675781 36.363281 C 166.203125 34.953125 164.527344 33.351562 162.613281 32.078125 C 160.953125 30.976562 159.136719 30.179688 157.375 29.402344 Z M 157.375 29.402344 " fill-opacity="1" fill-rule="nonzero"/><path fill="#263151" d="M 153.523438 22.484375 C 157.445312 23.484375 161.101562 25.09375 164.492188 27.3125 C 167.886719 29.527344 170.828125 32.234375 173.324219 35.429688 C 173.582031 35.785156 173.910156 36.042969 174.3125 36.210938 C 174.714844 36.378906 175.128906 36.433594 175.558594 36.367188 C 176.035156 36.285156 176.460938 36.085938 176.835938 35.78125 C 177.210938 35.472656 177.484375 35.089844 177.660156 34.636719 C 177.84375 34.183594 177.898438 33.71875 177.828125 33.234375 C 177.757812 32.753906 177.570312 32.324219 177.269531 31.941406 C 174.425781 28.355469 171.089844 25.316406 167.253906 22.824219 C 163.421875 20.332031 159.296875 18.515625 154.871094 17.375 C 154.425781 17.253906 153.980469 17.253906 153.53125 17.375 C 153.085938 17.5 152.703125 17.726562 152.378906 18.054688 C 152.039062 18.410156 151.808594 18.824219 151.683594 19.300781 C 151.5625 19.773438 151.5625 20.25 151.691406 20.722656 C 151.8125 21.164062 152.035156 21.539062 152.367188 21.855469 C 152.695312 22.171875 153.082031 22.382812 153.523438 22.484375 Z M 153.523438 22.484375 " fill-opacity="1" fill-rule="nonzero"/><path fill="#ffffff" d="M 169.867188 85.226562 C 169.21875 81.15625 168.765625 77.121094 168.847656 72.992188 C 168.921875 69.226562 169.796875 65.496094 169.785156 61.746094 C 169.765625 56.183594 166.117188 51.648438 161.589844 48.8125 C 161.53125 48.773438 161.476562 48.777344 161.421875 48.828125 L 160.101562 47.082031 C 160.199219 46.996094 160.171875 46.796875 160.015625 46.816406 C 157.789062 47.09375 156.167969 48.433594 154.671875 50.027344 C 152.511719 52.332031 150.519531 54.8125 148.585938 57.308594 C 144.804688 62.191406 141.335938 67.308594 137.949219 72.46875 C 134.996094 76.972656 130.59375 82.066406 130.648438 87.757812 C 130.679688 91.601562 132.417969 95.339844 134.480469 98.742188 C 131.703125 98.941406 128.90625 99.359375 126.140625 99.554688 C 125.984375 99.554688 125.824219 99.542969 125.667969 99.53125 C 123.390625 99.355469 121.128906 99.03125 118.855469 98.816406 C 118.457031 98.78125 118.050781 98.746094 117.648438 98.71875 C 118.949219 96.546875 119.984375 94.253906 120.761719 91.839844 C 121.449219 89.667969 121.539062 87.472656 121.03125 85.25 C 121.015625 85.167969 120.992188 85.082031 120.972656 85 L 120.910156 84.746094 C 120.886719 84.660156 120.863281 84.574219 120.839844 84.488281 C 120.097656 81.832031 118.613281 79.339844 116.964844 76.796875 C 113.011719 70.699219 109.035156 64.601562 104.648438 58.796875 C 102.640625 56.136719 100.546875 53.535156 98.335938 51.039062 C 96.601562 49.078125 94.777344 47.144531 92.074219 46.808594 C 91.917969 46.789062 91.894531 46.984375 91.988281 47.074219 L 90.667969 48.816406 C 90.617188 48.769531 90.5625 48.765625 90.503906 48.800781 C 86.542969 51.28125 83.105469 55.113281 82.433594 59.902344 C 82 62.976562 82.789062 66.089844 83.050781 69.15625 C 83.332031 72.472656 83.332031 75.789062 83.050781 79.105469 C 82.765625 82.480469 81.925781 85.792969 81.734375 89.175781 C 81.570312 92.066406 82.210938 94.800781 83.171875 97.507812 C 84.519531 101.234375 86.34375 104.710938 88.640625 107.9375 C 90.9375 111.164062 93.621094 114.023438 96.695312 116.515625 C 97.609375 117.257812 98.558594 117.960938 99.542969 118.621094 C 99.980469 118.917969 100.644531 119.554688 101.261719 119.429688 C 101.285156 119.425781 101.3125 119.417969 101.335938 119.410156 C 101.894531 119.929688 102.726562 120.203125 103.414062 120.550781 C 105.257812 121.484375 107.117188 122.386719 109.027344 123.1875 C 112.527344 124.6875 116.167969 125.683594 119.941406 126.175781 C 122 126.425781 124.066406 126.511719 126.140625 126.429688 C 127.066406 126.460938 127.992188 126.460938 128.917969 126.429688 C 133.34375 126.253906 137.621094 125.355469 141.746094 123.730469 C 143.789062 122.9375 145.777344 122.011719 147.75 121.035156 C 148.699219 120.558594 150.167969 120.15625 150.925781 119.289062 C 151.296875 119.324219 151.738281 119.183594 152.332031 118.796875 C 154.464844 117.378906 156.449219 115.777344 158.285156 113.984375 C 162.140625 110.246094 165.207031 105.941406 167.480469 101.070312 C 168.585938 98.691406 169.558594 96.179688 170.089844 93.605469 C 170.625 90.808594 170.3125 88.023438 169.867188 85.226562 Z M 155.078125 116.589844 C 154.378906 117.214844 153.632812 117.773438 152.832031 118.257812 C 153.601562 117.730469 154.347656 117.175781 155.078125 116.589844 Z M 102.640625 120.003906 L 103.867188 120.628906 C 103.449219 120.433594 103.027344 120.226562 102.644531 120.003906 Z M 102.640625 120.003906 " fill-opacity="1" fill-rule="nonzero"/><path fill="#415584" d="M 82.90625 74.003906 C 82.824219 71.347656 82.746094 68.691406 82.667969 66.035156 C 82.597656 63.695312 82.316406 60.972656 80.335938 59.734375 L 80.863281 59.613281 C 78.015625 59.867188 75.574219 61.886719 74.128906 64.347656 C 72.6875 66.8125 72.109375 69.679688 71.710938 72.507812 C 71.148438 76.492188 70.914062 80.628906 72.089844 84.476562 C 72.542969 85.855469 73.097656 87.195312 73.75 88.496094 C 74.617188 90.3125 75.871094 92.347656 77.875 92.515625 C 79.261719 92.632812 80.582031 91.742188 81.339844 90.574219 C 82.09375 89.402344 82.386719 87.996094 82.578125 86.613281 C 83.160156 82.445312 83.03125 78.214844 82.90625 74.003906 Z M 82.90625 74.003906 " fill-opacity="1" fill-rule="nonzero"/><path fill="#415584" d="M 179.824219 72.507812 C 179.425781 69.679688 178.847656 66.8125 177.402344 64.347656 C 175.960938 61.886719 173.507812 59.867188 170.675781 59.613281 L 171.195312 59.734375 C 169.21875 60.972656 168.9375 63.695312 168.867188 66.035156 C 168.789062 68.691406 168.710938 71.347656 168.628906 74.003906 C 168.503906 78.214844 168.378906 82.445312 168.96875 86.617188 C 169.164062 88 169.441406 89.410156 170.210938 90.578125 C 170.976562 91.746094 172.289062 92.636719 173.671875 92.523438 C 175.679688 92.351562 176.929688 90.316406 177.796875 88.5 C 178.449219 87.199219 179.003906 85.863281 179.457031 84.480469 C 180.621094 80.628906 180.382812 76.484375 179.824219 72.507812 Z M 179.824219 72.507812 " fill-opacity="1" fill-rule="nonzero"/><path fill="#ff6724" d="M 76.175781 50.148438 C 75.714844 48.65625 74.179688 47.859375 72.695312 48.101562 C 72.472656 48.125 72.332031 48.242188 72.273438 48.460938 L 72.226562 48.460938 C 70.316406 48.289062 70.265625 50.671875 70.75 51.945312 C 71.3125 53.414062 72.8125 54.304688 74.347656 53.71875 C 75.71875 53.183594 76.617188 51.585938 76.175781 50.148438 Z M 76.175781 50.148438 " fill-opacity="1" fill-rule="nonzero"/><path fill="#ff6724" d="M 181.308594 50.148438 C 180.847656 48.65625 179.3125 47.859375 177.824219 48.101562 C 177.605469 48.125 177.464844 48.242188 177.402344 48.460938 L 177.359375 48.460938 C 175.445312 48.289062 175.394531 50.671875 175.882812 51.945312 C 176.445312 53.414062 177.945312 54.304688 179.476562 53.71875 C 180.847656 53.183594 181.75 51.585938 181.308594 50.148438 Z M 181.308594 50.148438 " fill-opacity="1" fill-rule="nonzero"/><path fill="#ff6724" d="M 125.394531 17.683594 C 125.359375 17.269531 124.945312 16.894531 124.515625 17.210938 C 122.378906 18.722656 121.039062 21.230469 121.386719 23.894531 C 121.417969 24.195312 121.484375 24.492188 121.582031 24.78125 C 121.679688 25.070312 121.808594 25.347656 121.964844 25.609375 C 122.125 25.867188 122.308594 26.109375 122.515625 26.332031 C 122.726562 26.550781 122.957031 26.746094 123.210938 26.917969 C 123.464844 27.085938 123.730469 27.226562 124.015625 27.339844 C 124.300781 27.449219 124.589844 27.53125 124.890625 27.578125 C 125.191406 27.625 125.496094 27.636719 125.796875 27.621094 C 126.101562 27.601562 126.398438 27.546875 126.691406 27.464844 C 132.019531 26.039062 131.28125 16.832031 125.394531 17.683594 Z M 125.394531 17.683594 " fill-opacity="1" fill-rule="nonzero"/><path fill="#b3b3b3" d="M 101.992188 102.394531 C 99.144531 106.25 96.355469 110.15625 94.875 114.773438 C 94.636719 115.523438 95.808594 115.84375 96.046875 115.101562 C 97.488281 110.578125 100.25 106.769531 103.039062 103.007812 C 103.511719 102.382812 102.453125 101.773438 101.992188 102.394531 Z M 101.992188 102.394531 " fill-opacity="1" fill-rule="nonzero"/><path fill="#b3b3b3" d="M 83.277344 72.6875 C 84.117188 71.167969 84.976562 69.660156 85.851562 68.164062 C 86.375 67.277344 86.632812 66.554688 87.710938 66.292969 C 88.605469 66.074219 89.636719 66.089844 90.558594 65.996094 C 91.328125 65.914062 91.335938 64.695312 90.558594 64.777344 C 89.113281 64.925781 86.761719 64.636719 85.785156 65.914062 C 84.386719 67.757812 83.347656 70.050781 82.226562 72.070312 C 81.847656 72.757812 82.898438 73.371094 83.277344 72.6875 Z M 83.277344 72.6875 " fill-opacity="1" fill-rule="nonzero"/><path fill="#b3b3b3" d="M 87.257812 98.554688 C 88.382812 97.792969 89.492188 96.941406 90.738281 96.382812 C 92.160156 95.742188 93.613281 95.804688 95.144531 95.945312 C 95.925781 96.015625 95.917969 94.796875 95.144531 94.726562 C 91.777344 94.417969 89.804688 95.398438 87.167969 97.148438 C 85.449219 93.96875 84.363281 90.585938 83.90625 87 C 83.8125 86.234375 82.59375 86.222656 82.691406 87 C 83.1875 91.027344 84.429688 94.804688 86.421875 98.335938 C 86.507812 98.480469 86.632812 98.574219 86.796875 98.617188 C 86.957031 98.65625 87.109375 98.636719 87.257812 98.554688 Z M 87.257812 98.554688 " fill-opacity="1" fill-rule="nonzero"/><path fill="#b3b3b3" d="M 149.640625 102.394531 C 149.179688 101.773438 148.125 102.378906 148.589844 103.011719 C 151.382812 106.777344 154.140625 110.585938 155.582031 115.101562 C 155.820312 115.84375 156.996094 115.527344 156.753906 114.777344 C 155.292969 110.15625 152.496094 106.25 149.640625 102.394531 Z M 149.640625 102.394531 " fill-opacity="1" fill-rule="nonzero"/><path fill="#b3b3b3" d="M 169.402344 72.070312 C 168.285156 70.046875 167.246094 67.753906 165.84375 65.910156 C 164.875 64.636719 162.503906 64.921875 161.070312 64.773438 C 160.292969 64.695312 160.296875 65.914062 161.070312 65.996094 C 161.914062 66.082031 162.796875 66.097656 163.628906 66.261719 C 164.90625 66.5 165.15625 67.109375 165.765625 68.164062 C 166.644531 69.660156 167.5 71.167969 168.339844 72.6875 C 168.734375 73.371094 169.785156 72.757812 169.402344 72.070312 Z M 169.402344 72.070312 " fill-opacity="1" fill-rule="nonzero"/><path fill="#b3b3b3" d="M 167.726562 87 C 167.269531 90.585938 166.183594 93.96875 164.464844 97.148438 C 161.824219 95.398438 159.851562 94.417969 156.488281 94.726562 C 155.714844 94.796875 155.707031 96.015625 156.488281 95.945312 C 158.015625 95.804688 159.460938 95.738281 160.894531 96.382812 C 162.140625 96.945312 163.25 97.792969 164.375 98.554688 C 164.523438 98.636719 164.675781 98.660156 164.835938 98.617188 C 165 98.574219 165.121094 98.480469 165.207031 98.335938 C 167.199219 94.804688 168.445312 91.027344 168.941406 87 C 169.039062 86.222656 167.820312 86.242188 167.726562 87 Z M 167.726562 87 " fill-opacity="1" fill-rule="nonzero"/><path fill="#b3b3b3" d="M 133.460938 117.902344 C 133.410156 117.746094 133.3125 117.625 133.171875 117.542969 C 133.027344 117.460938 132.875 117.441406 132.714844 117.476562 C 130.503906 117.78125 128.289062 117.828125 126.070312 117.613281 C 125.992188 117.585938 125.914062 117.578125 125.832031 117.589844 L 125.796875 117.589844 C 125.714844 117.578125 125.636719 117.585938 125.558594 117.613281 C 123.339844 117.828125 121.125 117.78125 118.914062 117.476562 C 118.753906 117.4375 118.601562 117.460938 118.457031 117.542969 C 118.3125 117.625 118.21875 117.746094 118.167969 117.902344 L 115.582031 124.066406 C 115.277344 124.78125 116.453125 125.105469 116.753906 124.390625 L 119.125 118.71875 C 121.351562 119 123.582031 119.03125 125.8125 118.808594 C 128.050781 119.027344 130.285156 118.996094 132.511719 118.710938 C 133.304688 120.605469 134.09375 122.496094 134.886719 124.382812 C 135.183594 125.097656 136.359375 124.785156 136.054688 124.0625 Z M 133.460938 117.902344 " fill-opacity="1" fill-rule="nonzero"/><path fill="#b3b3b3" d="M 167.617188 99.660156 C 167.0625 100.070312 166.027344 101.191406 165.367188 101.328125 C 164.355469 101.53125 163.578125 100.597656 162.816406 100.042969 C 162.730469 99.992188 162.660156 100.011719 162.605469 100.097656 C 160.675781 103.308594 158.613281 106.417969 155.460938 108.570312 C 155.375 108.621094 155.355469 108.691406 155.40625 108.777344 C 156.457031 110.1875 157.21875 111.738281 157.691406 113.433594 C 157.710938 113.492188 157.75 113.527344 157.808594 113.535156 C 157.871094 113.546875 157.921875 113.527344 157.957031 113.480469 L 158.042969 113.542969 C 157.980469 113.625 157.984375 113.695312 158.0625 113.761719 C 158.144531 113.828125 158.214844 113.820312 158.28125 113.742188 C 160.378906 111.71875 162.222656 109.484375 163.808594 107.035156 C 165.253906 104.789062 167.011719 102.382812 167.839844 99.835938 C 167.867188 99.714844 167.722656 99.574219 167.617188 99.660156 Z M 167.617188 99.660156 " fill-opacity="1" fill-rule="nonzero"/><path fill="#b3b3b3" d="M 164.722656 62.648438 C 165.136719 63.035156 165.859375 63.191406 166.351562 63.484375 C 167.152344 63.972656 167.875 64.558594 168.519531 65.238281 C 168.5625 65.28125 168.609375 65.292969 168.664062 65.28125 C 168.722656 65.265625 168.757812 65.230469 168.773438 65.171875 C 169.082031 63.25 169.765625 61.226562 168.980469 59.351562 C 167.949219 56.882812 166.292969 54.589844 164.6875 52.46875 C 164.621094 52.371094 164.542969 52.359375 164.449219 52.433594 L 164.011719 51.910156 C 164.011719 51.847656 164.011719 51.78125 164 51.714844 C 163.984375 51.519531 163.679688 51.519531 163.695312 51.714844 C 163.902344 55.011719 163.933594 58.367188 164.324219 61.644531 C 164.398438 62.210938 164.351562 62.300781 164.722656 62.648438 Z M 164.722656 62.648438 " fill-opacity="1" fill-rule="nonzero"/><path fill="#b3b3b3" d="M 96.296875 108.570312 C 93.15625 106.429688 91.078125 103.308594 89.152344 100.09375 C 89.101562 100.003906 89.03125 99.988281 88.945312 100.035156 C 88.183594 100.589844 87.402344 101.527344 86.394531 101.324219 C 85.734375 101.191406 84.695312 100.070312 84.144531 99.65625 C 84.035156 99.578125 83.882812 99.707031 83.921875 99.828125 C 84.757812 102.382812 86.507812 104.785156 87.953125 107.03125 C 89.542969 109.476562 91.382812 111.710938 93.480469 113.738281 C 93.546875 113.816406 93.617188 113.824219 93.695312 113.757812 C 93.777344 113.691406 93.78125 113.617188 93.71875 113.539062 L 93.804688 113.476562 C 93.839844 113.523438 93.890625 113.542969 93.949219 113.53125 C 94.011719 113.519531 94.050781 113.484375 94.070312 113.425781 C 94.542969 111.734375 95.304688 110.183594 96.355469 108.773438 C 96.398438 108.6875 96.378906 108.621094 96.296875 108.570312 Z M 96.296875 108.570312 " fill-opacity="1" fill-rule="nonzero"/><path fill="#b3b3b3" d="M 83.238281 65.238281 C 83.8125 64.636719 84.445312 64.105469 85.136719 63.644531 C 85.632812 63.332031 86.378906 63.167969 86.820312 62.792969 C 87.402344 62.316406 87.335938 62.449219 87.425781 61.644531 C 87.808594 58.363281 87.847656 55.007812 88.054688 51.714844 C 88.066406 51.519531 87.765625 51.519531 87.75 51.714844 C 87.75 51.78125 87.75 51.847656 87.75 51.910156 L 87.296875 52.441406 C 87.203125 52.367188 87.125 52.378906 87.058594 52.476562 C 85.464844 54.582031 83.808594 56.886719 82.777344 59.34375 C 81.992188 61.21875 82.675781 63.242188 82.984375 65.164062 C 83 65.222656 83.035156 65.261719 83.089844 65.277344 C 83.148438 65.292969 83.195312 65.28125 83.238281 65.238281 Z M 83.238281 65.238281 " fill-opacity="1" fill-rule="nonzero"/><path fill="#415584" d="M 125.996094 33.667969 L 125.996094 33.628906 L 125.820312 33.644531 L 125.632812 33.632812 L 125.632812 33.671875 C 122.6875 34.011719 102.0625 36.828125 90.421875 49.105469 L 91.648438 82.351562 C 91.648438 82.351562 91.90625 98.382812 95.144531 101.5 C 98.382812 104.613281 115.417969 109.117188 125.589844 109.214844 L 126.039062 109.214844 C 136.210938 109.117188 153.277344 104.578125 156.484375 101.5 C 159.6875 98.417969 159.980469 82.351562 159.980469 82.351562 L 161.207031 49.105469 C 149.566406 36.828125 128.9375 34.011719 125.996094 33.667969 Z M 125.996094 33.667969 " fill-opacity="1" fill-rule="nonzero"/><path fill="#263151" d="M 155.671875 61.292969 C 155.660156 60.566406 155.554688 59.851562 155.351562 59.148438 C 154.84375 57.613281 153.484375 56.488281 151.992188 55.871094 C 150.503906 55.257812 148.875 55.085938 147.269531 54.921875 C 146.785156 54.832031 146.304688 54.851562 145.832031 54.984375 C 145 55.285156 144.5625 56.175781 144.207031 56.992188 C 142.59375 60.675781 140.851562 64.359375 138.304688 67.46875 C 135.757812 70.578125 132.304688 73.101562 128.359375 73.800781 C 127.480469 73.953125 124.148438 73.953125 123.269531 73.800781 C 119.320312 73.101562 115.871094 70.578125 113.324219 67.46875 C 110.777344 64.359375 109.035156 60.675781 107.421875 56.992188 C 107.0625 56.183594 106.628906 55.285156 105.796875 54.984375 C 105.320312 54.851562 104.84375 54.832031 104.355469 54.921875 C 102.753906 55.085938 101.125 55.261719 99.636719 55.871094 C 98.144531 56.484375 96.789062 57.613281 96.273438 59.148438 C 96.074219 59.851562 95.96875 60.566406 95.957031 61.292969 C 95.40625 70.9375 95.589844 80.570312 96.511719 90.1875 C 96.730469 92.472656 97.007812 94.8125 98.035156 96.863281 C 99.0625 98.914062 101.007812 100.65625 103.292969 100.8125 C 104.78125 101.140625 118.128906 104.570312 122.929688 104.691406 C 123.902344 104.71875 127.722656 104.71875 128.699219 104.691406 C 133.5 104.570312 146.847656 101.140625 148.335938 100.8125 C 150.621094 100.65625 152.5625 98.90625 153.59375 96.863281 C 154.621094 94.820312 154.898438 92.472656 155.117188 90.1875 C 156.039062 80.570312 156.222656 70.9375 155.671875 61.292969 Z M 155.671875 61.292969 " fill-opacity="1" fill-rule="nonzero"/><path fill="#263151" d="M 177.222656 88.605469 C 177.132812 88.660156 177.042969 88.722656 176.957031 88.789062 C 176.136719 89.035156 175.785156 88.777344 175.898438 88.011719 C 175.863281 87.65625 175.851562 87.296875 175.867188 86.9375 C 175.910156 86.527344 175.945312 86.117188 175.972656 85.707031 L 175.972656 85.683594 C 176.230469 81.71875 175.722656 77.738281 174.773438 73.828125 C 174.753906 73.753906 174.703125 73.71875 174.628906 73.71875 C 174.550781 73.71875 174.503906 73.753906 174.484375 73.828125 C 174.128906 75.800781 173.707031 77.753906 173.183594 79.6875 C 173.164062 79.765625 173.144531 79.859375 173.121094 79.957031 C 172.820312 80.363281 172.445312 80.496094 171.9375 79.785156 C 171.78125 79.53125 171.691406 79.253906 171.667969 78.957031 C 171.640625 78.648438 171.625 78.339844 171.605469 78.03125 C 171.605469 77.757812 171.59375 77.488281 171.5625 77.214844 C 171.550781 77.003906 171.539062 76.800781 171.519531 76.613281 C 171.21875 73.691406 170.972656 70.765625 170.570312 67.863281 C 170.425781 65.613281 170.601562 63.386719 171.097656 61.1875 C 171.140625 60.996094 170.859375 60.914062 170.800781 61.105469 C 170.699219 61.546875 170.609375 61.988281 170.535156 62.429688 L 170.367188 62.945312 C 170.265625 62.898438 170.203125 62.933594 170.179688 63.042969 C 170.070312 63.480469 169.980469 63.929688 169.90625 64.386719 C 169.789062 64.359375 169.71875 64.40625 169.703125 64.53125 C 168.917969 72.816406 168.953125 81.101562 169.8125 89.382812 C 170.046875 91.5 170.699219 92.808594 172.992188 92.761719 C 173.671875 92.75 174.058594 92.761719 174.464844 92.207031 C 174.542969 92.09375 174.605469 91.972656 174.652344 91.84375 C 174.691406 91.890625 174.734375 91.929688 174.785156 91.960938 C 175.195312 92.167969 175.871094 91.34375 176.097656 91.117188 C 176.746094 90.46875 177.425781 89.6875 177.449219 88.738281 C 177.449219 88.679688 177.425781 88.636719 177.375 88.605469 C 177.324219 88.578125 177.273438 88.574219 177.222656 88.605469 Z M 177.222656 88.605469 " fill-opacity="1" fill-rule="nonzero"/><path fill="#263151" d="M 82.210938 64.527344 C 82.191406 64.40625 82.125 64.355469 82.003906 64.378906 C 81.933594 63.921875 81.84375 63.472656 81.738281 63.039062 C 81.710938 62.925781 81.648438 62.894531 81.546875 62.941406 L 81.378906 62.421875 C 81.304688 61.984375 81.21875 61.539062 81.109375 61.101562 C 81.066406 60.910156 80.769531 60.992188 80.820312 61.179688 C 81.3125 63.378906 81.488281 65.597656 81.34375 67.847656 C 80.929688 70.75 80.6875 73.675781 80.394531 76.597656 C 80.289062 77.625 80.171875 78.652344 80.035156 79.671875 C 80.019531 79.707031 79.996094 79.742188 79.972656 79.773438 C 79.5 80.46875 79.121094 80.363281 78.820312 79.980469 C 78.261719 77.949219 77.8125 75.890625 77.441406 73.820312 C 77.417969 73.746094 77.367188 73.710938 77.292969 73.710938 C 77.21875 73.710938 77.167969 73.746094 77.144531 73.820312 C 76.195312 77.726562 75.691406 81.710938 75.960938 85.671875 L 75.960938 85.6875 C 75.988281 86.097656 76.023438 86.507812 76.070312 86.917969 C 76.082031 87.277344 76.070312 87.636719 76.03125 87.996094 C 76.148438 88.757812 75.796875 89.015625 74.976562 88.769531 C 74.890625 88.703125 74.800781 88.640625 74.707031 88.585938 C 74.65625 88.550781 74.605469 88.546875 74.550781 88.578125 C 74.496094 88.605469 74.46875 88.652344 74.472656 88.714844 C 74.492188 89.613281 75.09375 90.328125 75.691406 90.953125 C 75.910156 91.191406 76.695312 92.160156 77.136719 91.9375 C 77.1875 91.90625 77.230469 91.867188 77.269531 91.820312 C 77.316406 91.953125 77.382812 92.078125 77.464844 92.195312 C 77.871094 92.742188 78.257812 92.734375 78.933594 92.75 C 81.21875 92.796875 81.890625 91.488281 82.117188 89.371094 C 82.96875 81.089844 83 72.808594 82.210938 64.527344 Z M 82.210938 64.527344 " fill-opacity="1" fill-rule="nonzero"/><path fill="#263151" d="M 105.777344 51.011719 C 105.660156 50.296875 105.601562 48.394531 104.875 47.996094 C 104.207031 47.621094 101.75 48.878906 101.09375 49.105469 C 99.707031 49.582031 97.53125 50.003906 96.378906 50.90625 C 95.59375 51.519531 95.75 52.472656 95.835938 53.433594 C 95.804688 53.699219 95.8125 53.957031 95.871094 54.21875 C 95.890625 54.292969 95.9375 54.332031 96.015625 54.328125 C 97.40625 54.46875 99.183594 53.097656 100.523438 52.746094 C 102.289062 52.269531 104.054688 51.972656 105.714844 51.183594 C 105.777344 51.140625 105.796875 51.085938 105.777344 51.011719 Z M 105.777344 51.011719 " fill-opacity="1" fill-rule="nonzero"/><path fill="#263151" d="M 95.910156 49.53125 C 96.734375 49.089844 97.589844 48.714844 98.476562 48.414062 L 99.839844 47.972656 C 101.425781 47.496094 103.050781 47.097656 104.527344 46.625 C 104.625 46.601562 104.660156 46.539062 104.632812 46.4375 C 104.40625 45.839844 104.128906 45.265625 103.804688 44.714844 C 103.753906 44.628906 103.683594 44.613281 103.597656 44.65625 C 101.371094 45.675781 99.136719 46.695312 96.933594 47.765625 C 96.261719 48.09375 95.296875 48.425781 95.761719 49.265625 C 95.585938 49.363281 95.734375 49.625 95.910156 49.53125 Z M 95.910156 49.53125 " fill-opacity="1" fill-rule="nonzero"/><path fill="#263151" d="M 155.953125 51.042969 C 155.523438 50.605469 154.613281 50.445312 154.054688 50.226562 C 153.058594 49.835938 152.050781 49.464844 151.035156 49.113281 C 150.335938 48.875 147.953125 47.628906 147.269531 47.992188 C 146.527344 48.382812 146.460938 50.339844 146.347656 51.015625 C 146.332031 51.089844 146.355469 51.148438 146.417969 51.1875 C 148.082031 51.976562 149.847656 52.285156 151.609375 52.75 C 152.957031 53.105469 154.707031 54.476562 156.117188 54.335938 C 156.195312 54.335938 156.242188 54.296875 156.265625 54.222656 C 156.316406 53.96875 156.328125 53.710938 156.300781 53.453125 C 156.375 52.609375 156.515625 51.613281 155.953125 51.042969 Z M 155.953125 51.042969 " fill-opacity="1" fill-rule="nonzero"/><path fill="#263151" d="M 156.375 49.269531 C 156.851562 48.433594 155.875 48.09375 155.207031 47.773438 C 153 46.703125 150.769531 45.683594 148.542969 44.664062 C 148.457031 44.617188 148.386719 44.636719 148.335938 44.71875 C 148.007812 45.269531 147.734375 45.84375 147.507812 46.445312 C 147.484375 46.539062 147.519531 46.601562 147.613281 46.632812 C 149.089844 47.109375 150.714844 47.5 152.300781 47.980469 L 153.664062 48.417969 C 154.550781 48.71875 155.40625 49.09375 156.230469 49.535156 C 156.394531 49.625 156.546875 49.363281 156.375 49.269531 Z M 156.375 49.269531 " fill-opacity="1" fill-rule="nonzero"/><path fill="#ffffff" d="M 77.953125 59.957031 C 70.980469 64.269531 69.074219 72.8125 71.074219 80.40625 C 71.101562 80.519531 71.160156 80.609375 71.257812 80.675781 C 71.351562 80.742188 71.457031 80.769531 71.570312 80.753906 C 71.542969 81.335938 71.53125 81.917969 71.535156 82.5 C 71.535156 83.144531 72.53125 83.144531 72.527344 82.5 C 72.480469 78.164062 73.351562 74.027344 75.136719 70.078125 C 75.882812 68.460938 76.898438 66.984375 77.652344 65.378906 C 78.402344 63.777344 78.65625 62.132812 78.691406 60.382812 C 78.691406 60.292969 78.664062 60.214844 78.621094 60.140625 C 78.578125 60.066406 78.515625 60.007812 78.441406 59.964844 C 78.367188 59.921875 78.285156 59.898438 78.199219 59.898438 C 78.113281 59.894531 78.03125 59.917969 77.953125 59.957031 Z M 77.953125 59.957031 " fill-opacity="1" fill-rule="nonzero"/><path fill="#ffffff" d="M 173.882812 59.957031 C 173.808594 59.914062 173.726562 59.890625 173.636719 59.890625 C 173.546875 59.890625 173.464844 59.914062 173.386719 59.957031 C 173.3125 60.003906 173.25 60.0625 173.207031 60.140625 C 173.160156 60.214844 173.136719 60.300781 173.136719 60.386719 C 173.175781 62.132812 173.4375 63.789062 174.179688 65.386719 C 174.925781 66.988281 175.949219 68.46875 176.695312 70.085938 C 178.480469 74.03125 179.347656 78.171875 179.304688 82.507812 C 179.304688 83.152344 180.292969 83.148438 180.296875 82.507812 C 180.296875 81.925781 180.285156 81.34375 180.257812 80.761719 C 180.375 80.777344 180.480469 80.75 180.574219 80.683594 C 180.667969 80.617188 180.730469 80.527344 180.757812 80.414062 C 182.761719 72.820312 180.859375 64.269531 173.882812 59.957031 Z M 173.882812 59.957031 " fill-opacity="1" fill-rule="nonzero"/><path fill="#ffffff" d="M 106.917969 40.703125 C 106.34375 39.378906 105.9375 37.679688 104.195312 38.289062 C 102.101562 39.003906 100.042969 40.324219 98.167969 41.484375 C 94.964844 43.46875 90.128906 46.007812 90.167969 50.308594 C 90.167969 50.449219 90.21875 50.566406 90.320312 50.660156 C 90.425781 50.753906 90.546875 50.796875 90.683594 50.78125 C 90.609375 50.875 90.53125 50.964844 90.449219 51.058594 C 90.046875 51.554688 90.746094 52.265625 91.160156 51.773438 C 93.113281 49.328125 95.40625 47.265625 98.039062 45.585938 C 100.757812 43.871094 103.800781 42.679688 106.738281 41.386719 C 107.003906 41.265625 107.015625 40.925781 106.917969 40.703125 Z M 106.917969 40.703125 " fill-opacity="1" fill-rule="nonzero"/><path fill="#ffffff" d="M 161.753906 50.296875 C 161.792969 45.988281 156.953125 43.457031 153.75 41.476562 C 151.878906 40.316406 149.820312 39.007812 147.722656 38.28125 C 145.988281 37.679688 145.589844 39.367188 145.003906 40.691406 C 144.90625 40.917969 144.917969 41.257812 145.183594 41.375 C 148.117188 42.679688 151.164062 43.855469 153.890625 45.578125 C 156.523438 47.257812 158.816406 49.320312 160.769531 51.765625 C 161.171875 52.265625 161.875 51.558594 161.480469 51.050781 L 161.246094 50.777344 C 161.382812 50.785156 161.503906 50.742188 161.601562 50.648438 C 161.703125 50.554688 161.753906 50.4375 161.753906 50.296875 Z M 161.753906 50.296875 " fill-opacity="1" fill-rule="nonzero"/><path fill="#ffffff" d="M 145.324219 37.621094 C 140.066406 36.265625 134.742188 35.277344 129.347656 34.652344 C 129.273438 34.46875 129.15625 34.324219 128.988281 34.222656 C 128.722656 34.101562 128.445312 34.066406 128.160156 34.113281 C 127.382812 34.164062 126.605469 34.230469 125.832031 34.296875 C 125.058594 34.230469 124.28125 34.164062 123.503906 34.113281 C 123.21875 34.066406 122.941406 34.101562 122.675781 34.222656 C 122.507812 34.324219 122.390625 34.46875 122.316406 34.652344 C 116.925781 35.277344 111.597656 36.265625 106.339844 37.621094 L 105.570312 37.832031 C 106.554688 41.660156 108.824219 45.011719 110.316406 48.667969 C 111.550781 51.703125 112.234375 54.929688 113.207031 58.058594 C 114.175781 61.1875 115.480469 64.300781 117.714844 66.683594 C 119.308594 68.371094 121.207031 69.574219 123.40625 70.296875 C 124.152344 70.539062 124.90625 70.714844 125.679688 70.828125 C 125.722656 70.839844 125.765625 70.839844 125.808594 70.828125 C 126.664062 70.710938 127.507812 70.523438 128.335938 70.265625 C 130.503906 69.546875 132.375 68.359375 133.949219 66.695312 C 136.1875 64.316406 137.492188 61.199219 138.457031 58.070312 C 139.425781 54.941406 140.121094 51.714844 141.347656 48.679688 C 142.835938 45.023438 145.101562 41.671875 146.09375 37.84375 Z M 145.324219 37.621094 " fill-opacity="1" fill-rule="nonzero"/><path fill="#263151" d="M 96.226562 30.132812 C 94.09375 31.097656 91.859375 31.96875 89.898438 33.269531 C 88.121094 34.460938 86.574219 35.925781 85.03125 37.394531 C 83.894531 38.476562 85.617188 40.199219 86.75 39.117188 C 88.296875 37.636719 89.855469 36.136719 91.699219 35.015625 C 93.546875 33.894531 95.527344 33.109375 97.460938 32.238281 C 98.878906 31.59375 97.644531 29.488281 96.226562 30.132812 Z M 96.226562 30.132812 " fill-opacity="1" fill-rule="nonzero"/><path fill="#263151" d="M 77.300781 34.546875 C 79.898438 31.234375 82.957031 28.425781 86.480469 26.125 C 90 23.824219 93.796875 22.148438 97.871094 21.105469 C 99.382812 20.71875 98.742188 18.363281 97.222656 18.753906 C 92.945312 19.847656 88.957031 21.597656 85.25 24.007812 C 81.546875 26.414062 78.324219 29.355469 75.582031 32.824219 C 74.617188 34.042969 76.328125 35.777344 77.300781 34.546875 Z M 77.300781 34.546875 " fill-opacity="1" fill-rule="nonzero"/><path fill="#263151" d="M 181.929688 52.847656 C 182.78125 51.675781 182.738281 50.210938 182.136719 49.003906 C 182.101562 48.882812 182.050781 48.769531 181.984375 48.664062 C 181.855469 48.476562 181.714844 48.296875 181.5625 48.132812 C 181.160156 47.640625 180.667969 47.265625 180.085938 47.003906 C 179.960938 46.949219 179.832031 46.917969 179.695312 46.902344 C 179.027344 46.675781 178.347656 46.632812 177.65625 46.78125 C 176.964844 46.929688 176.363281 47.246094 175.84375 47.726562 C 174.007812 49.394531 173.914062 52.609375 175.953125 54.132812 C 175.984375 54.15625 176.015625 54.171875 176.042969 54.195312 C 175.613281 55.808594 175.152344 57.425781 174.796875 59.058594 C 174.328125 58.820312 173.839844 58.652344 173.328125 58.554688 C 172.214844 58.332031 171.171875 58.519531 170.207031 59.121094 C 168.507812 54.679688 165.542969 50.726562 162.085938 47.367188 C 162.035156 47.308594 161.980469 47.257812 161.921875 47.210938 C 160.277344 45.636719 158.539062 44.179688 156.699219 42.84375 C 148.070312 36.507812 137.589844 33.347656 126.96875 33.003906 C 127.0625 31.636719 127.078125 30.273438 127.023438 28.90625 C 127.023438 28.878906 127.023438 28.859375 127.023438 28.835938 C 127.644531 28.710938 128.230469 28.496094 128.789062 28.199219 C 131.667969 26.644531 132.492188 22.777344 131.007812 19.960938 C 129.429688 16.996094 125.464844 15.648438 122.660156 17.75 C 122.644531 17.75 122.632812 17.769531 122.621094 17.78125 C 122.035156 18.195312 121.53125 18.695312 121.109375 19.28125 C 120.691406 19.867188 120.378906 20.503906 120.175781 21.195312 C 119.96875 21.886719 119.882812 22.59375 119.914062 23.3125 C 119.949219 24.03125 120.097656 24.726562 120.363281 25.398438 C 120.726562 26.300781 121.285156 27.058594 122.035156 27.671875 C 122.789062 28.285156 123.640625 28.679688 124.59375 28.855469 C 124.59375 28.875 124.59375 28.890625 124.59375 28.910156 C 124.652344 30.28125 124.632812 31.648438 124.539062 33.015625 C 113.992188 33.394531 103.601562 36.554688 95.023438 42.84375 C 93.191406 44.179688 91.457031 45.632812 89.820312 47.203125 C 89.753906 47.25 89.695312 47.308594 89.644531 47.371094 C 86.195312 50.726562 83.238281 54.667969 81.539062 59.105469 C 80.992188 58.773438 80.398438 58.574219 79.761719 58.511719 C 78.769531 58.414062 77.828125 58.601562 76.945312 59.070312 C 76.582031 57.4375 76.125 55.820312 75.695312 54.203125 C 75.722656 54.183594 75.753906 54.164062 75.785156 54.144531 C 77.839844 52.605469 77.707031 49.429688 75.894531 47.734375 C 75.378906 47.25 74.773438 46.929688 74.082031 46.785156 C 73.386719 46.636719 72.707031 46.679688 72.039062 46.914062 C 71.90625 46.925781 71.773438 46.960938 71.652344 47.015625 C 71.066406 47.277344 70.574219 47.65625 70.167969 48.148438 C 70.015625 48.316406 69.878906 48.488281 69.753906 48.675781 C 69.6875 48.78125 69.636719 48.894531 69.601562 49.015625 C 69 50.222656 68.953125 51.683594 69.808594 52.855469 C 70.664062 54.027344 72.003906 54.84375 73.367188 54.90625 C 73.882812 56.828125 74.441406 58.75 74.8125 60.707031 C 74.566406 60.953125 74.335938 61.214844 74.121094 61.484375 C 71.082031 65.410156 69.96875 70.839844 69.824219 75.695312 C 69.726562 78.828125 70.09375 81.90625 70.921875 84.929688 C 71.617188 87.453125 72.78125 91.59375 75.011719 93.15625 C 76.734375 94.367188 78.808594 94.464844 80.664062 93.6875 C 81.847656 99.257812 84.695312 104.597656 88.054688 109.089844 C 90.597656 112.527344 93.5625 115.550781 96.949219 118.15625 C 100.335938 120.757812 104.015625 122.847656 107.984375 124.414062 C 113.652344 126.632812 119.71875 127.582031 125.78125 127.617188 C 125.8125 127.617188 125.84375 127.617188 125.875 127.617188 C 125.90625 127.617188 125.933594 127.617188 125.964844 127.617188 C 136.003906 127.558594 145.917969 124.796875 154.042969 118.757812 C 157.132812 116.460938 159.898438 113.820312 162.339844 110.835938 C 164.78125 107.851562 166.820312 104.613281 168.460938 101.125 C 169.601562 98.761719 170.472656 96.300781 171.074219 93.746094 C 172.34375 94.246094 173.890625 94.34375 174.933594 94.046875 C 177.921875 93.195312 179.042969 90 180.046875 87.347656 C 181.160156 84.339844 181.78125 81.230469 181.910156 78.023438 C 182.148438 72.855469 181.226562 67.132812 178.453125 62.683594 C 178.019531 61.972656 177.515625 61.308594 176.949219 60.699219 C 177.316406 58.746094 177.878906 56.824219 178.386719 54.902344 C 179.730469 54.835938 181.058594 54.042969 181.929688 52.847656 Z M 178.917969 49.136719 C 179.71875 49.507812 180.453125 50.304688 180.042969 51.28125 C 179.695312 52.109375 178.496094 52.75 177.660156 52.34375 C 175.84375 51.460938 177.414062 48.777344 178.917969 49.136719 Z M 122.90625 25.066406 C 121.957031 23.574219 122.269531 21.183594 123.617188 20 C 123.710938 19.960938 123.796875 19.914062 123.878906 19.851562 C 127.535156 17.113281 131.488281 23.335938 127.976562 25.832031 C 126.417969 26.953125 123.96875 26.730469 122.90625 25.066406 Z M 71.742188 51.398438 C 71.238281 50.410156 71.976562 49.527344 72.824219 49.136719 C 74.324219 48.78125 75.882812 51.464844 74.078125 52.34375 C 73.273438 52.734375 72.136719 52.171875 71.742188 51.398438 Z M 74.28125 87.292969 C 73.191406 84.5625 72.53125 81.730469 72.308594 78.796875 C 72.085938 75.867188 72.304688 72.96875 72.972656 70.101562 C 73.460938 68 74.171875 65.921875 75.292969 64.070312 C 75.707031 63.347656 76.210938 62.695312 76.804688 62.113281 C 76.910156 62.015625 77.023438 61.925781 77.144531 61.847656 C 76.667969 63.652344 76.476562 68.4375 77.007812 68.511719 C 77.660156 68.597656 79.265625 63.109375 79.894531 61.046875 C 80.402344 61.050781 80.78125 61.277344 81.023438 61.722656 C 81.0625 62.105469 81.097656 62.492188 81.132812 62.875 C 81.113281 63.066406 81.132812 63.25 81.1875 63.433594 C 81.742188 69.199219 81.910156 74.976562 81.683594 80.765625 C 81.613281 82.359375 81.5 83.953125 81.339844 85.539062 C 81.238281 86.519531 81.117188 87.496094 80.964844 88.46875 C 80.871094 89.085938 80.886719 90.304688 80.542969 90.828125 C 80.265625 91.25 79.574219 91.542969 78.878906 91.6875 C 78.144531 88.855469 77.089844 81.894531 76.480469 81.894531 C 75.875 81.890625 75.621094 88.292969 76.183594 90.851562 C 75.265625 89.882812 74.722656 88.363281 74.28125 87.292969 Z M 142.878906 122.160156 C 137.464844 124.238281 131.742188 125.144531 125.960938 125.179688 C 125.929688 125.179688 125.898438 125.179688 125.867188 125.179688 C 125.839844 125.179688 125.808594 125.179688 125.777344 125.179688 C 116.132812 125.125 106.71875 122.457031 98.925781 116.648438 C 95.988281 114.441406 93.367188 111.90625 91.0625 109.042969 C 88.753906 106.183594 86.832031 103.078125 85.292969 99.738281 C 84.109375 97.230469 83.269531 94.613281 82.777344 91.882812 C 83.628906 90.152344 83.554688 87.429688 83.726562 85.863281 C 84.609375 77.652344 84.246094 69.304688 83.394531 61.105469 C 84.558594 57.449219 86.71875 54.105469 89.328125 51.164062 C 89.210938 61.171875 90.941406 82.300781 91.527344 82.332031 C 92.160156 82.363281 91.585938 59.480469 91.796875 48.632812 C 95.691406 44.96875 100.082031 42.050781 104.96875 39.882812 C 107.4375 47.023438 113.847656 62.019531 114.425781 61.882812 C 115.003906 61.746094 109.707031 46.171875 107.210938 38.945312 C 113.21875 36.652344 119.4375 35.476562 125.867188 35.417969 C 132.296875 35.480469 138.519531 36.660156 144.527344 38.960938 C 142.027344 46.195312 136.679688 61.726562 137.269531 61.886719 C 137.859375 62.050781 144.296875 47.035156 146.761719 39.898438 C 151.644531 42.066406 156.039062 44.984375 159.933594 48.648438 C 160.144531 59.5 159.460938 82.304688 160.042969 82.34375 C 160.675781 82.386719 162.519531 61.1875 162.402344 51.179688 C 165.011719 54.121094 167.171875 57.464844 168.335938 61.121094 C 167.574219 68.433594 167.234375 75.835938 167.761719 83.179688 C 167.875 84.734375 168.035156 86.289062 168.238281 87.835938 C 168.40625 89.066406 168.433594 90.65625 168.949219 91.859375 C 166.734375 105.394531 155.292969 117.378906 142.878906 122.160156 Z M 178.765625 70.101562 C 179.433594 72.96875 179.652344 75.867188 179.429688 78.800781 C 179.207031 81.730469 178.546875 84.5625 177.453125 87.292969 C 177.019531 88.355469 176.464844 89.871094 175.570312 90.835938 C 176.128906 88.285156 175.78125 81.839844 175.132812 81.898438 C 174.574219 81.957031 173.605469 88.855469 172.867188 91.6875 C 172.15625 91.554688 171.472656 91.25 171.195312 90.828125 C 170.484375 89.742188 170.570312 87.125 170.433594 85.871094 C 170.253906 84.171875 170.132812 82.472656 170.054688 80.765625 C 169.828125 74.972656 169.992188 69.191406 170.542969 63.421875 C 170.601562 63.238281 170.621094 63.054688 170.597656 62.867188 C 170.632812 62.480469 170.671875 62.097656 170.710938 61.710938 C 170.957031 61.265625 171.332031 61.039062 171.839844 61.039062 C 172.472656 63.101562 174.078125 68.589844 174.730469 68.503906 C 175.261719 68.4375 175.0625 63.652344 174.59375 61.839844 C 174.714844 61.917969 174.824219 62.007812 174.929688 62.105469 C 175.527344 62.6875 176.03125 63.339844 176.445312 64.0625 C 177.566406 65.921875 178.277344 68 178.765625 70.101562 Z M 178.765625 70.101562 " fill-opacity="1" fill-rule="nonzero"/><path fill="#263151" d="M 155.507812 30.132812 C 154.085938 29.492188 152.859375 31.59375 154.28125 32.238281 C 156.21875 33.109375 158.230469 33.902344 160.042969 35.015625 C 161.859375 36.125 163.441406 37.632812 164.988281 39.117188 C 166.121094 40.199219 167.835938 38.476562 166.707031 37.394531 C 165.167969 35.925781 163.621094 34.449219 161.839844 33.269531 C 159.878906 31.96875 157.644531 31.097656 155.507812 30.132812 Z M 155.507812 30.132812 " fill-opacity="1" fill-rule="nonzero"/><path fill="#263151" d="M 153.867188 21.105469 C 157.9375 22.152344 161.734375 23.824219 165.253906 26.125 C 168.773438 28.425781 171.832031 31.234375 174.429688 34.546875 C 175.398438 35.777344 177.109375 34.042969 176.148438 32.824219 C 173.40625 29.355469 170.1875 26.414062 166.484375 24.007812 C 162.78125 21.597656 158.789062 19.847656 154.511719 18.753906 C 153.003906 18.367188 152.359375 20.714844 153.867188 21.105469 Z M 153.867188 21.105469 " fill-opacity="1" fill-rule="nonzero"/><path fill="#9dfff2" d="M 112.378906 80.9375 C 112.378906 81.597656 112.335938 82.253906 112.25 82.902344 C 112.167969 83.546875 112.039062 84.175781 111.875 84.789062 C 111.707031 85.398438 111.5 85.976562 111.257812 86.527344 C 111.015625 87.074219 110.738281 87.582031 110.429688 88.050781 C 110.121094 88.515625 109.785156 88.933594 109.421875 89.300781 C 109.058594 89.667969 108.675781 89.976562 108.273438 90.230469 C 107.871094 90.484375 107.453125 90.675781 107.027344 90.804688 C 106.597656 90.933594 106.164062 90.996094 105.726562 90.996094 C 105.292969 90.996094 104.859375 90.933594 104.429688 90.804688 C 104.003906 90.675781 103.585938 90.484375 103.183594 90.230469 C 102.78125 89.976562 102.398438 89.667969 102.035156 89.300781 C 101.671875 88.933594 101.335938 88.515625 101.027344 88.050781 C 100.714844 87.582031 100.441406 87.074219 100.199219 86.527344 C 99.957031 85.976562 99.75 85.398438 99.582031 84.789062 C 99.417969 84.175781 99.289062 83.546875 99.207031 82.902344 C 99.121094 82.253906 99.078125 81.597656 99.078125 80.9375 C 99.078125 80.277344 99.121094 79.625 99.207031 78.976562 C 99.289062 78.328125 99.417969 77.699219 99.582031 77.089844 C 99.75 76.480469 99.957031 75.898438 100.199219 75.351562 C 100.441406 74.800781 100.714844 74.292969 101.027344 73.828125 C 101.335938 73.359375 101.671875 72.941406 102.035156 72.578125 C 102.398438 72.210938 102.78125 71.898438 103.183594 71.648438 C 103.585938 71.394531 104.003906 71.203125 104.429688 71.074219 C 104.859375 70.945312 105.292969 70.882812 105.726562 70.882812 C 106.164062 70.882812 106.597656 70.945312 107.027344 71.074219 C 107.453125 71.203125 107.871094 71.394531 108.273438 71.648438 C 108.675781 71.898438 109.058594 72.210938 109.421875 72.578125 C 109.785156 72.941406 110.121094 73.359375 110.429688 73.828125 C 110.738281 74.292969 111.015625 74.800781 111.257812 75.351562 C 111.5 75.898438 111.707031 76.480469 111.875 77.089844 C 112.039062 77.699219 112.167969 78.328125 112.25 78.976562 C 112.335938 79.625 112.378906 80.277344 112.378906 80.9375 Z M 112.378906 80.9375 " fill-opacity="1" fill-rule="nonzero"/><path fill="#9dfff2" d="M 152.660156 80.9375 C 152.660156 81.597656 152.617188 82.253906 152.53125 82.902344 C 152.445312 83.546875 152.320312 84.175781 152.152344 84.789062 C 151.988281 85.398438 151.78125 85.976562 151.539062 86.527344 C 151.296875 87.074219 151.019531 87.582031 150.710938 88.050781 C 150.402344 88.515625 150.066406 88.933594 149.703125 89.300781 C 149.339844 89.667969 148.957031 89.976562 148.554688 90.230469 C 148.152344 90.484375 147.734375 90.675781 147.304688 90.804688 C 146.878906 90.933594 146.445312 90.996094 146.007812 90.996094 C 145.574219 90.996094 145.140625 90.933594 144.710938 90.804688 C 144.285156 90.675781 143.867188 90.484375 143.464844 90.230469 C 143.058594 89.976562 142.675781 89.667969 142.3125 89.300781 C 141.949219 88.933594 141.613281 88.515625 141.304688 88.050781 C 140.996094 87.582031 140.722656 87.074219 140.480469 86.527344 C 140.238281 85.976562 140.03125 85.398438 139.863281 84.789062 C 139.695312 84.175781 139.570312 83.546875 139.484375 82.902344 C 139.402344 82.253906 139.359375 81.597656 139.359375 80.9375 C 139.359375 80.277344 139.402344 79.625 139.484375 78.976562 C 139.570312 78.328125 139.699219 77.699219 139.863281 77.089844 C 140.03125 76.480469 140.238281 75.898438 140.480469 75.351562 C 140.722656 74.800781 140.996094 74.292969 141.304688 73.828125 C 141.613281 73.359375 141.949219 72.941406 142.3125 72.578125 C 142.675781 72.210938 143.058594 71.898438 143.464844 71.648438 C 143.867188 71.394531 144.285156 71.203125 144.710938 71.074219 C 145.140625 70.945312 145.574219 70.882812 146.007812 70.882812 C 146.445312 70.882812 146.878906 70.945312 147.304688 71.074219 C 147.734375 71.203125 148.152344 71.394531 148.554688 71.648438 C 148.957031 71.898438 149.339844 72.210938 149.703125 72.578125 C 150.066406 72.941406 150.402344 73.359375 150.710938 73.828125 C 151.019531 74.292969 151.296875 74.800781 151.539062 75.351562 C 151.78125 75.898438 151.988281 76.480469 152.152344 77.089844 C 152.320312 77.699219 152.445312 78.328125 152.53125 78.976562 C 152.617188 79.625 152.660156 80.277344 152.660156 80.9375 Z M 152.660156 80.9375 " fill-opacity="1" fill-rule="nonzero"/><path fill="#b3b3b3" d="M 134.507812 39.71875 C 133.34375 39.140625 131.914062 39.003906 130.660156 38.847656 C 128.488281 38.578125 126.308594 38.519531 124.121094 38.664062 C 121.226562 38.871094 118.359375 39.269531 115.515625 39.855469 C 115.105469 39.933594 114.566406 40.050781 113.992188 40.179688 C 113.65625 40.253906 113.355469 40.398438 113.082031 40.609375 C 112.808594 40.820312 112.597656 41.078125 112.4375 41.386719 C 112.28125 41.695312 112.195312 42.019531 112.183594 42.363281 C 112.171875 42.710938 112.234375 43.039062 112.367188 43.359375 C 112.480469 43.625 112.605469 43.890625 112.699219 44.148438 C 114.410156 48.339844 115.511719 52.640625 116.464844 57.140625 C 117.207031 60.65625 118.675781 64.59375 122.105469 66.019531 C 122.273438 66.089844 122.40625 66.050781 122.511719 65.902344 C 122.613281 65.75 122.601562 65.609375 122.476562 65.480469 C 121.339844 64.304688 119.628906 61.925781 118.464844 57.011719 C 117.972656 55.0625 117.515625 53.105469 117.101562 51.140625 C 117.015625 50.734375 116.277344 47.609375 116.152344 46.875 C 116.082031 46.109375 116.152344 45.484375 116.511719 45.230469 C 116.683594 45.121094 116.867188 45.042969 117.066406 44.992188 C 117.21875 44.960938 117.375 44.921875 117.527344 44.890625 C 121.5625 43.894531 124.222656 43.882812 128.839844 43.914062 C 130.105469 43.929688 131.449219 44.128906 132.527344 43.328125 C 133.316406 42.75 134.253906 41.472656 134.773438 40.710938 C 134.828125 40.628906 134.867188 40.542969 134.886719 40.445312 C 134.902344 40.34375 134.898438 40.25 134.875 40.152344 C 134.847656 40.054688 134.804688 39.96875 134.738281 39.894531 C 134.675781 39.820312 134.597656 39.761719 134.507812 39.71875 Z M 134.507812 39.71875 " fill-opacity="1" fill-rule="nonzero"/><path fill="#b3b3b3" d="M 130.578125 46.894531 C 128.3125 46.507812 126.03125 46.425781 123.742188 46.65625 C 122.65625 46.753906 119.65625 46.972656 118.902344 47.898438 C 118.460938 48.441406 119.214844 51.316406 119.875 52.472656 C 120.039062 52.78125 120.273438 53.015625 120.585938 53.167969 C 121.1875 53.167969 120.753906 51.027344 123.367188 49.921875 C 124.53125 49.460938 128.964844 49.316406 131.398438 49.546875 C 132.089844 49.613281 134.265625 49.746094 133.894531 48.339844 C 133.671875 47.496094 131.246094 47.011719 130.578125 46.894531 Z M 130.578125 46.894531 " fill-opacity="1" fill-rule="nonzero"/></svg>